<?xml version="1.0" standalone="no"?><!DOCTYPE svg PUBLIC "-//W3C//DTD SVG 1.1//EN" "http://www.w3.org/Graphics/SVG/1.1/DTD/svg11.dtd"><svg class="icon" width="200px" height="200.00px" viewBox="0 0 1024 1024" version="1.1" xmlns="http://www.w3.org/2000/svg"><path fill="#d81e06" d="M896 757.76c-25.6-20.48-122.88-71.68-138.24-87.04-20.48-15.36-61.44-30.72-87.04-5.12-25.6 30.72-35.84 30.72-66.56 40.96-30.72 10.24-107.52-61.44-138.24-87.04-25.6-20.48-20.48-20.48-46.08-46.08s-107.52-117.76-107.52-153.6c0-35.84 5.12-35.84 30.72-61.44 15.36-15.36 35.84-35.84 30.72-51.2 0-25.6-20.48-40.96-20.48-40.96S281.6 153.6 266.24 128c-20.48-40.96-40.96-20.48-40.96-20.48S138.24 163.84 128 174.08c-15.36 5.12-25.6 25.6-25.6 71.68 0 46.08 5.12 87.04 66.56 209.92 51.2 102.4 158.72 184.32 204.8 235.52 46.08 46.08 112.64 107.52 204.8 163.84 112.64 71.68 158.72 71.68 204.8 71.68 46.08 0 66.56-10.24 71.68-20.48 5.12-10.24 61.44-97.28 61.44-97.28s5.12-35.84-20.48-51.2z m-358.4-271.36c20.48 20.48 51.2 20.48 71.68 0L716.8 378.88l107.52 107.52c20.48 20.48 51.2 20.48 71.68 0 20.48-20.48 20.48-51.2 0-71.68L788.48 307.2l107.52-107.52c20.48-20.48 20.48-51.2 0-71.68-20.48-20.48-51.2-20.48-71.68 0L716.8 235.52l-107.52-107.52c-20.48-20.48-51.2-20.48-71.68 0s-20.48 51.2 0 71.68L645.12 307.2l-107.52 107.52c-20.48 20.48-20.48 51.2 0 71.68z"  /></svg>